<svg height="512pt" viewBox="0 -9 512 512" width="512pt" xmlns="http://www.w3.org/2000/svg"><path d="m503.464844 469.34375c-21.789063.296875-42.179688-10.707031-53.894532-29.082031-1.484374-3.046875-4.578124-4.980469-7.96875-4.980469-3.390624 0-6.484374 1.933594-7.972656 4.980469-11.921875 18.148437-32.179687 29.078125-53.894531 29.078125-21.71875 0-41.972656-10.929688-53.898437-29.078125-1.484376-3.046875-4.578126-4.980469-7.96875-4.980469-3.390626 0-6.484376 1.933594-7.96875 4.980469-11.925782 18.148437-32.183594 29.078125-53.898438 29.078125s-41.972656-10.929688-53.898438-29.078125c-1.484374-3.046875-4.578124-4.980469-7.96875-4.980469-3.390624 0-6.484374 1.933594-7.96875 4.980469-11.714843 18.375-32.109374 29.378906-53.898437 29.082031-21.789063.296875-42.179687-10.707031-53.894531-29.082031-1.488282-3.046875-4.582032-4.980469-7.972656-4.980469-3.390626 0-6.484376 1.933594-7.96875 4.980469-11.714844 18.375-32.105469 29.378906-53.894532 29.082031v25.601562h494.929688zm0 0" fill="#3b97d3"/><path d="m489.472656 128.691406c0 34.050782-34.132812 34.050782-34.132812 34.050782h-119.46875c-.765625 11.761718-3.714844 23.28125-8.703125 33.960937-17.578125 35.074219-55.296875 27.90625-74.070313 21.589844-2.5625-.839844-4.566406-2.855469-5.394531-5.421875-.828125-2.5625-.375-5.371094 1.214844-7.546875 3.808593-5.398438 7.203125-11.074219 10.152343-16.984375 8.535157-17.066406 0-25.597656 0-25.597656s-17.066406 8.53125-68.265624 51.113281c-51.199219 42.582031-51.199219 93.695312-51.199219 93.695312 27.9375 8.714844 46.617187 35.007813 45.652343 64.257813-.109374 3.472656-2.320312 6.535156-5.582031 7.734375s-6.929687.300781-9.265625-2.273438c-4.777344-5.375-10.070312-10.15625-13.738281-10.15625h-25.601563c-8.53125 0-25.597656-16.980469-25.597656-16.980469s-17.066406 16.980469-25.601562 16.980469h-25.597656c-3.671876 0-8.960938 4.78125-13.738282 10.15625-2.347656 2.582031-6.027344 3.488281-9.304687 2.289063-3.277344-1.199219-5.503907-4.261719-5.628907-7.75-.910156-29.257813 17.792969-55.535156 45.738282-64.257813-17.066406-161.792969 68.265625-229.972656 68.265625-229.972656-6.058594-18.003906-29.183594-36.097656-42.15625-45.140625-2.1875-1.519531-3.542969-3.972656-3.660157-6.636719-.117187-2.660156 1.015626-5.226562 3.0625-6.933593 57.515626-46.503907 119.554688 7.597656 119.554688 7.597656s25.597656-25.515625 110.933594-25.515625c86.355468 0 105.898437 66.21875 109.992187 87.296875.671875 3.664062 3.710938 6.425781 7.425781 6.742187 13.738282 1.363281 44.714844 7.25 44.714844 33.703125zm0 0" fill="#3b97d3"/><path d="m370.003906 162.742188v.9375s0 40.789062-30.378906 55.550781c-2.648438 1.257812-5.757812 1.078125-8.242188-.476563-2.488281-1.554687-4.011718-4.269531-4.042968-7.203125v-14.761719l-.171875-.085937c4.988281-10.679687 7.9375-22.199219 8.703125-33.960937zm0 0" fill="#285680"/><path d="m503.464844 477.878906c-24.746094.25-47.871094-12.285156-61.171875-33.152344-.183594-.335937-.4375-.628906-.746094-.855468-.226563.273437-.441406.558594-.636719.855468-13.476562 20.683594-36.492187 33.15625-61.175781 33.15625-24.6875 0-47.703125-12.472656-61.175781-33.15625-.183594-.335937-.4375-.628906-.742188-.855468-.230468.273437-.441406.558594-.640625.855468-13.476562 20.683594-36.488281 33.15625-61.175781 33.15625s-47.699219-12.472656-61.175781-33.15625c-.183594-.335937-.4375-.628906-.742188-.855468-.226562.273437-.441406.558594-.640625.855468-13.300781 20.867188-36.425781 33.402344-61.175781 33.152344-24.746094.25-47.875-12.285156-61.175781-33.152344-.183594-.335937-.433594-.628906-.742188-.855468-.226562.273437-.441406.558594-.640625.855468-13.300781 20.867188-36.425781 33.402344-61.171875 33.152344-4.714844 0-8.535156-3.824218-8.535156-8.535156s3.820312-8.535156 8.535156-8.535156c18.8125.269531 36.4375-9.179688 46.625-25 3.140625-5.484375 8.921875-8.921875 15.238282-9.0625 6.320312.140625 12.101562 3.578125 15.242187 9.0625 10.1875 15.820312 27.8125 25.269531 46.625 25 18.816406.269531 36.441406-9.179688 46.628906-25 3.035157-5.585938 8.882813-9.0625 15.238281-9.0625 6.355469 0 12.203126 3.476562 15.242188 9.0625 10.375 15.613281 27.878906 25 46.625 25s36.25-9.386719 46.625-25c3.039062-5.585938 8.886719-9.0625 15.242188-9.0625 6.355468 0 12.203124 3.476562 15.238281 9.0625 10.375 15.613281 27.878906 25 46.628906 25 18.746094 0 36.25-9.386719 46.625-25 3.035156-5.585938 8.882813-9.0625 15.242187-9.0625 6.355469 0 12.203126 3.476562 15.238282 9.0625 10.1875 15.820312 27.8125 25.269531 46.625 25 4.714844 0 8.535156 3.824218 8.535156 8.535156s-3.820312 8.535156-8.535156 8.535156zm0 0" fill="#2980ba"/><path d="m387.0625 94.636719c0 4.710937-3.820312 8.53125-8.53125 8.53125-4.714844 0-8.535156-3.820313-8.535156-8.53125 0-4.714844 3.820312-8.535157 8.535156-8.535157 4.710938 0 8.53125 3.820313 8.53125 8.535157zm0 0" fill="#fff"/><path d="m384 162.144531-.851562.597657h-47.277344c-.765625 11.761718-3.714844 23.28125-8.703125 33.960937-.597657 1.195313-1.28125 2.390625-1.878907 3.5-.425781.683594-.851562 1.277344-1.277343 1.875-1.84375 2.992187-4.050781 5.746094-6.570313 8.195313-.960937.980468-1.988281 1.890624-3.074218 2.730468-1.644532 1.410156-3.414063 2.667969-5.289063 3.753906-.941406.597657-1.964844 1.109376-2.988281 1.707032-.066406.003906-.125.035156-.167969.085937-1.28125.59375-2.648437 1.109375-4.011719 1.621094-2.742187 1.015625-5.570312 1.785156-8.449218 2.300781-3.628907.679688-7.316407 1.023438-11.007813 1.027344-10-.167969-19.90625-1.925781-29.355469-5.207031-2.5625-.839844-4.566406-2.855469-5.394531-5.421875-.828125-2.5625-.375-5.371094 1.214844-7.546875 3.808593-5.398438 7.203125-11.074219 10.152343-16.984375 8.535157-17.066406 0-25.597656 0-25.597656s-17.066406 8.53125-68.265624 51.113281c-51.199219 42.582031-51.199219 93.695312-51.199219 93.695312 5.417969 1.761719 10.585937 4.230469 15.359375 7.339844 19.964844 11.796875 31.660156 33.765625 30.292968 56.917969-.109374 3.472656-2.320312 6.535156-5.582031 7.734375s-6.929687.300781-9.265625-2.273438c-4.777344-5.375-10.070312-10.15625-13.738281-10.15625h-25.601563c-8.019531 0-23.464843-14.933593-25.425781-16.808593l-.171875-.171876-1.023437-1.621093-2.050781 1.367187s0-315.734375 281.601562-187.734375zm0 0" fill="#2980ba"/></svg>